<?xml version="1.0" encoding="utf-8"?>
<!-- Generator: Adobe Illustrator 24.3.0, SVG Export Plug-In . SVG Version: 6.00 Build 0)  -->
<svg version="1.1" id="Layer_1" xmlns="http://www.w3.org/2000/svg" xmlns:xlink="http://www.w3.org/1999/xlink" x="0px" y="0px"
	 viewBox="0 0 1920 1080" style="enable-background:new 0 0 1920 1080;" xml:space="preserve">
<style type="text/css">
	.st0{fill:#141C3A;stroke:#000000;stroke-miterlimit:10;}
</style>
<path class="st0" d="M0.5,748.5c53.32,3.04,97.52,9.3,130,15c43.33,7.6,75.55,16.07,140,33c61.29,16.1,102.1,28.92,121,35
	c28.95,9.32,51.31,17.25,59,20c26.99,9.65,44.32,16.53,56,21c44.67,17.08,81.45,29.86,112,36c68,13.67,136,27.33,204,41
	c76.33,3,152.67,6,229,9c86.97-8.67,154.66-25.21,201-39c47.43-14.11,64.61-22.99,136-43c72.12-20.21,118.17-28.97,141-33
	c23.83-4.2,54.19-9.48,95-13c15.31-1.32,62.93-5.05,126-3c1.91,0.06,5.79,0.19,10.29,0.38c61.56,2.64,132.19,5.66,159.71,25.62
	c50.14,36.37,16.07,171.74,0,213c-145.94,374.66-1668.11,528.35-1912,14C-41.66,974.72-30.62,855.74,0.5,748.5z"/>
</svg>
