<?xml version="1.0" encoding="utf-8"?>
<!-- Generator: Adobe Illustrator 24.3.0, SVG Export Plug-In . SVG Version: 6.00 Build 0)  -->
<svg version="1.1" id="Layer_1" xmlns="http://www.w3.org/2000/svg" xmlns:xlink="http://www.w3.org/1999/xlink" x="0px" y="0px"
	 viewBox="0 0 1920 1080" style="enable-background:new 0 0 1920 1080;" xml:space="preserve">
<style type="text/css">
	.st0{fill:#141C3A;stroke:#000000;stroke-miterlimit:10;}
</style>
<path class="st0" d="M1760.79,827.88c-4.51-0.19-8.39-0.32-10.29-0.38c-63.07-2.05-110.69,1.68-126,3c-40.81,3.52-71.17,8.8-95,13
	c-22.83,4.03-68.88,12.79-141,33c-71.39,20.01-88.57,28.89-136,43c-46.34,13.79-114.03,30.33-201,39c-76.33-3-152.67-6-229-9
	c-68-13.67-136-27.33-204-41c-30.55-6.14-67.33-18.92-112-36c-11.68-4.47-29.01-11.35-56-21c-7.69-2.75-30.05-10.68-59-20
	c-18.9-6.08-59.71-18.9-121-35c-64.45-16.93-96.67-25.4-140-33c-30.77-5.4-72.07-11.3-121.67-14.49v332.17
	c1.27,2.65,2.57,5.29,3.9,7.9h1897.15c3.27-5.94,6.18-11.94,8.73-17.99V852.21C1889.88,833.41,1821,830.46,1760.79,827.88z"/>
</svg>
